<svg id="visual" viewBox="0 0 900 600" width="900" height="600" xmlns="http://www.w3.org/2000/svg" xmlns:xlink="http://www.w3.org/1999/xlink" version="1.1"><rect x="0" y="0" width="900" height="600" fill="#77B254"></rect><path d="M0 331L75 331.8C150 332.7 300 334.3 450 321.3C600 308.3 750 280.7 825 266.8L900 253L900 601L825 601C750 601 600 601 450 601C300 601 150 601 75 601L0 601Z" fill="#7f5f31"></path><path d="M0 419L75 412.7C150 406.3 300 393.7 450 385.5C600 377.3 750 373.7 825 371.8L900 370L900 601L825 601C750 601 600 601 450 601C300 601 150 601 75 601L0 601Z" fill="#694c22"></path><path d="M0 426L75 422.8C150 419.7 300 413.3 450 407C600 400.7 750 394.3 825 391.2L900 388L900 601L825 601C750 601 600 601 450 601C300 601 150 601 75 601L0 601Z" fill="#543a14"></path><path d="M0 451L75 460C150 469 300 487 450 486C600 485 750 465 825 455L900 445L900 601L825 601C750 601 600 601 450 601C300 601 150 601 75 601L0 601Z" fill="#483312"></path><path d="M0 507L75 509C150 511 300 515 450 516C600 517 750 515 825 514L900 513L900 601L825 601C750 601 600 601 450 601C300 601 150 601 75 601L0 601Z" fill="#3d2c11"></path></svg>