<svg id="visual" viewBox="0 0 900 600" width="900" height="600" xmlns="http://www.w3.org/2000/svg" xmlns:xlink="http://www.w3.org/1999/xlink" version="1.1"><path d="M0 61L15 60C30 59 60 57 90 59C120 61 150 67 180 66C210 65 240 57 270 57C300 57 330 65 360 67C390 69 420 65 450 64C480 63 510 65 540 70C570 75 600 83 630 86C660 89 690 87 720 80C750 73 780 61 810 60C840 59 870 69 885 74L900 79L900 0L885 0C870 0 840 0 810 0C780 0 750 0 720 0C690 0 660 0 630 0C600 0 570 0 540 0C510 0 480 0 450 0C420 0 390 0 360 0C330 0 300 0 270 0C240 0 210 0 180 0C150 0 120 0 90 0C60 0 30 0 15 0L0 0Z" fill="#3d2c11"></path><path d="M0 121L15 122C30 123 60 125 90 127C120 129 150 131 180 129C210 127 240 121 270 121C300 121 330 127 360 134C390 141 420 149 450 154C480 159 510 161 540 165C570 169 600 175 630 172C660 169 690 157 720 145C750 133 780 121 810 126C840 131 870 153 885 164L900 175L900 77L885 72C870 67 840 57 810 58C780 59 750 71 720 78C690 85 660 87 630 84C600 81 570 73 540 68C510 63 480 61 450 62C420 63 390 67 360 65C330 63 300 55 270 55C240 55 210 63 180 64C150 65 120 59 90 57C60 55 30 57 15 58L0 59Z" fill="#483312"></path><path d="M0 247L15 240C30 233 60 219 90 218C120 217 150 229 180 235C210 241 240 241 270 247C300 253 330 265 360 266C390 267 420 257 450 250C480 243 510 239 540 247C570 255 600 275 630 282C660 289 690 283 720 269C750 255 780 233 810 232C840 231 870 251 885 261L900 271L900 173L885 162C870 151 840 129 810 124C780 119 750 131 720 143C690 155 660 167 630 170C600 173 570 167 540 163C510 159 480 157 450 152C420 147 390 139 360 132C330 125 300 119 270 119C240 119 210 125 180 127C150 129 120 127 90 125C60 123 30 121 15 120L0 119Z" fill="#543a14"></path><path d="M0 385L15 393C30 401 60 417 90 424C120 431 150 429 180 433C210 437 240 447 270 454C300 461 330 465 360 461C390 457 420 445 450 438C480 431 510 429 540 437C570 445 600 463 630 464C660 465 690 449 720 434C750 419 780 405 810 403C840 401 870 411 885 416L900 421L900 269L885 259C870 249 840 229 810 230C780 231 750 253 720 267C690 281 660 287 630 280C600 273 570 253 540 245C510 237 480 241 450 248C420 255 390 265 360 264C330 263 300 251 270 245C240 239 210 239 180 233C150 227 120 215 90 216C60 217 30 231 15 238L0 245Z" fill="#694c22"></path><path d="M0 601L15 601C30 601 60 601 90 601C120 601 150 601 180 601C210 601 240 601 270 601C300 601 330 601 360 601C390 601 420 601 450 601C480 601 510 601 540 601C570 601 600 601 630 601C660 601 690 601 720 601C750 601 780 601 810 601C840 601 870 601 885 601L900 601L900 419L885 414C870 409 840 399 810 401C780 403 750 417 720 432C690 447 660 463 630 462C600 461 570 443 540 435C510 427 480 429 450 436C420 443 390 455 360 459C330 463 300 459 270 452C240 445 210 435 180 431C150 427 120 429 90 422C60 415 30 399 15 391L0 383Z" fill="#7f5f31"></path></svg>