<svg id="visual" viewBox="0 0 900 600" width="900" height="600" xmlns="http://www.w3.org/2000/svg" xmlns:xlink="http://www.w3.org/1999/xlink" version="1.1"><path d="M0 91L13.7 94C27.3 97 54.7 103 82 104C109.3 105 136.7 101 163.8 102C191 103 218 109 245.2 112C272.3 115 299.7 115 327 112C354.3 109 381.7 103 409 98C436.3 93 463.7 89 491 90C518.3 91 545.7 97 573 97C600.3 97 627.7 91 654.8 93C682 95 709 105 736.2 105C763.3 105 790.7 95 818 94C845.3 93 872.7 101 886.3 105L900 109L900 0L886.3 0C872.7 0 845.3 0 818 0C790.7 0 763.3 0 736.2 0C709 0 682 0 654.8 0C627.7 0 600.3 0 573 0C545.7 0 518.3 0 491 0C463.7 0 436.3 0 409 0C381.7 0 354.3 0 327 0C299.7 0 272.3 0 245.2 0C218 0 191 0 163.8 0C136.7 0 109.3 0 82 0C54.7 0 27.3 0 13.7 0L0 0Z" fill="#77b254"></path><path d="M0 265L13.7 262C27.3 259 54.7 253 82 254C109.3 255 136.7 263 163.8 270C191 277 218 283 245.2 284C272.3 285 299.7 281 327 278C354.3 275 381.7 273 409 270C436.3 267 463.7 263 491 267C518.3 271 545.7 283 573 289C600.3 295 627.7 295 654.8 290C682 285 709 275 736.2 273C763.3 271 790.7 277 818 281C845.3 285 872.7 287 886.3 288L900 289L900 107L886.3 103C872.7 99 845.3 91 818 92C790.7 93 763.3 103 736.2 103C709 103 682 93 654.8 91C627.7 89 600.3 95 573 95C545.7 95 518.3 89 491 88C463.7 87 436.3 91 409 96C381.7 101 354.3 107 327 110C299.7 113 272.3 113 245.2 110C218 107 191 101 163.8 100C136.7 99 109.3 103 82 102C54.7 101 27.3 95 13.7 92L0 89Z" fill="#7a9139"></path><path d="M0 331L13.7 331C27.3 331 54.7 331 82 334C109.3 337 136.7 343 163.8 349C191 355 218 361 245.2 361C272.3 361 299.7 355 327 349C354.3 343 381.7 337 409 336C436.3 335 463.7 339 491 343C518.3 347 545.7 351 573 357C600.3 363 627.7 371 654.8 368C682 365 709 351 736.2 349C763.3 347 790.7 357 818 363C845.3 369 872.7 371 886.3 372L900 373L900 287L886.3 286C872.7 285 845.3 283 818 279C790.7 275 763.3 269 736.2 271C709 273 682 283 654.8 288C627.7 293 600.3 293 573 287C545.7 281 518.3 269 491 265C463.7 261 436.3 265 409 268C381.7 271 354.3 273 327 276C299.7 279 272.3 283 245.2 282C218 281 191 275 163.8 268C136.7 261 109.3 253 82 252C54.7 251 27.3 257 13.7 260L0 263Z" fill="#747226"></path><path d="M0 415L13.7 417C27.3 419 54.7 423 82 423C109.3 423 136.7 419 163.8 422C191 425 218 435 245.2 440C272.3 445 299.7 445 327 441C354.3 437 381.7 429 409 428C436.3 427 463.7 433 491 439C518.3 445 545.7 451 573 453C600.3 455 627.7 453 654.8 444C682 435 709 419 736.2 420C763.3 421 790.7 439 818 445C845.3 451 872.7 445 886.3 442L900 439L900 371L886.3 370C872.7 369 845.3 367 818 361C790.7 355 763.3 345 736.2 347C709 349 682 363 654.8 366C627.7 369 600.3 361 573 355C545.7 349 518.3 345 491 341C463.7 337 436.3 333 409 334C381.7 335 354.3 341 327 347C299.7 353 272.3 359 245.2 359C218 359 191 353 163.8 347C136.7 341 109.3 335 82 332C54.7 329 27.3 329 13.7 329L0 329Z" fill="#67551b"></path><path d="M0 601L13.7 601C27.3 601 54.7 601 82 601C109.3 601 136.7 601 163.8 601C191 601 218 601 245.2 601C272.3 601 299.7 601 327 601C354.3 601 381.7 601 409 601C436.3 601 463.7 601 491 601C518.3 601 545.7 601 573 601C600.3 601 627.7 601 654.8 601C682 601 709 601 736.2 601C763.3 601 790.7 601 818 601C845.3 601 872.7 601 886.3 601L900 601L900 437L886.3 440C872.7 443 845.3 449 818 443C790.7 437 763.3 419 736.2 418C709 417 682 433 654.8 442C627.7 451 600.3 453 573 451C545.7 449 518.3 443 491 437C463.7 431 436.3 425 409 426C381.7 427 354.3 435 327 439C299.7 443 272.3 443 245.2 438C218 433 191 423 163.8 420C136.7 417 109.3 421 82 421C54.7 421 27.3 417 13.7 415L0 413Z" fill="#543a14"></path></svg>