<svg id="visual" viewBox="0 0 960 540" width="960" height="540" xmlns="http://www.w3.org/2000/svg" xmlns:xlink="http://www.w3.org/1999/xlink" version="1.1"><path d="M0 141L14.5 132C29 123 58 105 87.2 97.8C116.3 90.7 145.7 94.3 174.8 109.7C204 125 233 152 262 152C291 152 320 125 349 121.5C378 118 407 138 436.2 151.5C465.3 165 494.7 172 523.8 173.7C553 175.3 582 171.7 611 157.3C640 143 669 118 698 120.8C727 123.7 756 154.3 785.2 169.7C814.3 185 843.7 185 872.8 169.7C902 154.3 931 123.7 945.5 108.3L960 93L960 0L945.5 0C931 0 902 0 872.8 0C843.7 0 814.3 0 785.2 0C756 0 727 0 698 0C669 0 640 0 611 0C582 0 553 0 523.8 0C494.7 0 465.3 0 436.2 0C407 0 378 0 349 0C320 0 291 0 262 0C233 0 204 0 174.8 0C145.7 0 116.3 0 87.2 0C58 0 29 0 14.5 0L0 0Z" fill="#0066ff"></path><path d="M0 228L14.5 221.7C29 215.3 58 202.7 87.2 193.7C116.3 184.7 145.7 179.3 174.8 192.8C204 206.3 233 238.7 262 244C291 249.3 320 227.7 349 228.5C378 229.3 407 252.7 436.2 270.7C465.3 288.7 494.7 301.3 523.8 304.2C553 307 582 300 611 283.8C640 267.7 669 242.3 698 233.3C727 224.3 756 231.7 785.2 238C814.3 244.3 843.7 249.7 872.8 238.8C902 228 931 201 945.5 187.5L960 174L960 91L945.5 106.3C931 121.7 902 152.3 872.8 167.7C843.7 183 814.3 183 785.2 167.7C756 152.3 727 121.7 698 118.8C669 116 640 141 611 155.3C582 169.7 553 173.3 523.8 171.7C494.7 170 465.3 163 436.2 149.5C407 136 378 116 349 119.5C320 123 291 150 262 150C233 150 204 123 174.8 107.7C145.7 92.3 116.3 88.7 87.2 95.8C58 103 29 121 14.5 130L0 139Z" fill="#9d4ce5"></path><path d="M0 271L14.5 271C29 271 58 271 87.2 270.2C116.3 269.3 145.7 267.7 174.8 275.8C204 284 233 302 262 304.7C291 307.3 320 294.7 349 298.2C378 301.7 407 321.3 436.2 333C465.3 344.7 494.7 348.3 523.8 355.5C553 362.7 582 373.3 611 363.5C640 353.7 669 323.3 698 304.5C727 285.7 756 278.3 785.2 286.3C814.3 294.3 843.7 317.7 872.8 307.8C902 298 931 255 945.5 233.5L960 212L960 172L945.5 185.5C931 199 902 226 872.8 236.8C843.7 247.7 814.3 242.3 785.2 236C756 229.7 727 222.3 698 231.3C669 240.3 640 265.7 611 281.8C582 298 553 305 523.8 302.2C494.7 299.3 465.3 286.7 436.2 268.7C407 250.7 378 227.3 349 226.5C320 225.7 291 247.3 262 242C233 236.7 204 204.3 174.8 190.8C145.7 177.3 116.3 182.7 87.2 191.7C58 200.7 29 213.3 14.5 219.7L0 226Z" fill="#d527bf"></path><path d="M0 460L14.5 464.5C29 469 58 478 87.2 474.3C116.3 470.7 145.7 454.3 174.8 456.2C204 458 233 478 262 488C291 498 320 498 349 491.7C378 485.3 407 472.7 436.2 462.7C465.3 452.7 494.7 445.3 523.8 448C553 450.7 582 463.3 611 465.2C640 467 669 458 698 459C727 460 756 471 785.2 468.3C814.3 465.7 843.7 449.3 872.8 443.8C902 438.3 931 443.7 945.5 446.3L960 449L960 210L945.5 231.5C931 253 902 296 872.8 305.8C843.7 315.7 814.3 292.3 785.2 284.3C756 276.3 727 283.7 698 302.5C669 321.3 640 351.7 611 361.5C582 371.3 553 360.7 523.8 353.5C494.7 346.3 465.3 342.7 436.2 331C407 319.3 378 299.7 349 296.2C320 292.7 291 305.3 262 302.7C233 300 204 282 174.8 273.8C145.7 265.7 116.3 267.3 87.2 268.2C58 269 29 269 14.5 269L0 269Z" fill="#f40093"></path><path d="M0 541L14.5 541C29 541 58 541 87.2 541C116.3 541 145.7 541 174.8 541C204 541 233 541 262 541C291 541 320 541 349 541C378 541 407 541 436.2 541C465.3 541 494.7 541 523.8 541C553 541 582 541 611 541C640 541 669 541 698 541C727 541 756 541 785.2 541C814.3 541 843.7 541 872.8 541C902 541 931 541 945.5 541L960 541L960 447L945.5 444.3C931 441.7 902 436.3 872.8 441.8C843.7 447.3 814.3 463.7 785.2 466.3C756 469 727 458 698 457C669 456 640 465 611 463.2C582 461.3 553 448.7 523.8 446C494.7 443.3 465.3 450.7 436.2 460.7C407 470.7 378 483.3 349 489.7C320 496 291 496 262 486C233 476 204 456 174.8 454.2C145.7 452.3 116.3 468.7 87.2 472.3C58 476 29 467 14.5 462.5L0 458Z" fill="#ff0066"></path></svg>