<svg id="visual" viewBox="0 0 960 540" width="960" height="540" xmlns="http://www.w3.org/2000/svg" xmlns:xlink="http://www.w3.org/1999/xlink" version="1.1"><path d="M0 98L87 109L175 163L262 141L349 217L436 114L524 174L611 217L698 206L785 222L873 93L960 147L960 0L873 0L785 0L698 0L611 0L524 0L436 0L349 0L262 0L175 0L87 0L0 0Z" fill="#0066ff"></path><path d="M0 158L87 217L175 271L262 185L349 282L436 174L524 249L611 330L698 282L785 298L873 185L960 222L960 145L873 91L785 220L698 204L611 215L524 172L436 112L349 215L262 139L175 161L87 107L0 96Z" fill="#007aff"></path><path d="M0 239L87 255L175 336L262 244L349 336L436 228L524 330L611 374L698 336L785 341L873 244L960 293L960 220L873 183L785 296L698 280L611 328L524 247L436 172L349 280L262 183L175 269L87 215L0 156Z" fill="#008cff"></path><path d="M0 314L87 347L175 406L262 347L349 455L436 368L524 449L611 465L698 401L785 422L873 379L960 406L960 291L873 242L785 339L698 334L611 372L524 328L436 226L349 334L262 242L175 334L87 253L0 237Z" fill="#2b9dfc"></path><path d="M0 541L87 541L175 541L262 541L349 541L436 541L524 541L611 541L698 541L785 541L873 541L960 541L960 404L873 377L785 420L698 399L611 463L524 447L436 366L349 453L262 345L175 404L87 345L0 312Z" fill="#4facf7"></path></svg>