<svg id="visual" viewBox="0 0 960 540" width="960" height="540" xmlns="http://www.w3.org/2000/svg" xmlns:xlink="http://www.w3.org/1999/xlink" version="1.1"><path d="M0 141L14.5 135.7C29 130.3 58 119.7 87.2 131.5C116.3 143.3 145.7 177.7 174.8 188.5C204 199.3 233 186.7 262 171.3C291 156 320 138 349 143.3C378 148.7 407 177.3 436.2 185.3C465.3 193.3 494.7 180.7 523.8 179.8C553 179 582 190 611 200C640 210 669 219 698 205.5C727 192 756 156 785.2 147.8C814.3 139.7 843.7 159.3 872.8 177.3C902 195.3 931 211.7 945.5 219.8L960 228L960 0L945.5 0C931 0 902 0 872.8 0C843.7 0 814.3 0 785.2 0C756 0 727 0 698 0C669 0 640 0 611 0C582 0 553 0 523.8 0C494.7 0 465.3 0 436.2 0C407 0 378 0 349 0C320 0 291 0 262 0C233 0 204 0 174.8 0C145.7 0 116.3 0 87.2 0C58 0 29 0 14.5 0L0 0Z" fill="#0066ff"></path><path d="M0 239L14.5 225.5C29 212 58 185 87.2 199.3C116.3 213.7 145.7 269.3 174.8 283.7C204 298 233 271 262 245.8C291 220.7 320 197.3 349 209C378 220.7 407 267.3 436.2 279C465.3 290.7 494.7 267.3 523.8 259.3C553 251.3 582 258.7 611 264C640 269.3 669 272.7 698 263.7C727 254.7 756 233.3 785.2 231.7C814.3 230 843.7 248 872.8 268.7C902 289.3 931 312.7 945.5 324.3L960 336L960 226L945.5 217.8C931 209.7 902 193.3 872.8 175.3C843.7 157.3 814.3 137.7 785.2 145.8C756 154 727 190 698 203.5C669 217 640 208 611 198C582 188 553 177 523.8 177.8C494.7 178.7 465.3 191.3 436.2 183.3C407 175.3 378 146.7 349 141.3C320 136 291 154 262 169.3C233 184.7 204 197.3 174.8 186.5C145.7 175.7 116.3 141.3 87.2 129.5C58 117.7 29 128.3 14.5 133.7L0 139Z" fill="#0a37bd"></path><path d="M0 341L14.5 354.5C29 368 58 395 87.2 405C116.3 415 145.7 408 174.8 408C204 408 233 415 262 408.7C291 402.3 320 382.7 349 380C378 377.3 407 391.7 436.2 398C465.3 404.3 494.7 402.7 523.8 396.3C553 390 582 379 611 384.3C640 389.7 669 411.3 698 407.8C727 404.3 756 375.7 785.2 369.3C814.3 363 843.7 379 872.8 389.7C902 400.3 931 405.7 945.5 408.3L960 411L960 334L945.5 322.3C931 310.7 902 287.3 872.8 266.7C843.7 246 814.3 228 785.2 229.7C756 231.3 727 252.7 698 261.7C669 270.7 640 267.3 611 262C582 256.7 553 249.3 523.8 257.3C494.7 265.3 465.3 288.7 436.2 277C407 265.3 378 218.7 349 207C320 195.3 291 218.7 262 243.8C233 269 204 296 174.8 281.7C145.7 267.3 116.3 211.7 87.2 197.3C58 183 29 210 14.5 223.5L0 237Z" fill="#001b98"></path><path d="M0 411L14.5 422.8C29 434.7 58 458.3 87.2 464.7C116.3 471 145.7 460 174.8 456.3C204 452.7 233 456.3 262 455.5C291 454.7 320 449.3 349 450.2C378 451 407 458 436.2 466C465.3 474 494.7 483 523.8 475.8C553 468.7 582 445.3 611 440.8C640 436.3 669 450.7 698 448.8C727 447 756 429 785.2 429C814.3 429 843.7 447 872.8 457.8C902 468.7 931 472.3 945.5 474.2L960 476L960 409L945.5 406.3C931 403.7 902 398.3 872.8 387.7C843.7 377 814.3 361 785.2 367.3C756 373.7 727 402.3 698 405.8C669 409.3 640 387.7 611 382.3C582 377 553 388 523.8 394.3C494.7 400.7 465.3 402.3 436.2 396C407 389.7 378 375.3 349 378C320 380.7 291 400.3 262 406.7C233 413 204 406 174.8 406C145.7 406 116.3 413 87.2 403C58 393 29 366 14.5 352.5L0 339Z" fill="#0a37bd"></path><path d="M0 541L14.5 541C29 541 58 541 87.2 541C116.3 541 145.7 541 174.8 541C204 541 233 541 262 541C291 541 320 541 349 541C378 541 407 541 436.2 541C465.3 541 494.7 541 523.8 541C553 541 582 541 611 541C640 541 669 541 698 541C727 541 756 541 785.2 541C814.3 541 843.7 541 872.8 541C902 541 931 541 945.5 541L960 541L960 474L945.5 472.2C931 470.3 902 466.7 872.8 455.8C843.7 445 814.3 427 785.2 427C756 427 727 445 698 446.8C669 448.7 640 434.3 611 438.8C582 443.3 553 466.7 523.8 473.8C494.7 481 465.3 472 436.2 464C407 456 378 449 349 448.2C320 447.3 291 452.7 262 453.5C233 454.3 204 450.7 174.8 454.3C145.7 458 116.3 469 87.2 462.7C58 456.3 29 432.7 14.5 420.8L0 409Z" fill="#002233"></path></svg>